<svg width="22" height="22" viewBox="0 0 22 22" fill="none" xmlns="http://www.w3.org/2000/svg">
<path d="M11 14.6673C13.025 14.6673 14.6667 13.0257 14.6667 11.0007C14.6667 8.97561 13.025 7.33398 11 7.33398C8.97496 7.33398 7.33334 8.97561 7.33334 11.0007C7.33334 13.0257 8.97496 14.6673 11 14.6673Z" stroke="black" stroke-width="2"/>
<path d="M20.1667 11.0007C20.1667 5.9379 16.0628 1.83398 11 1.83398C5.93725 1.83398 1.83334 5.9379 1.83334 11.0007C1.83334 16.0634 5.93725 20.1673 11 20.1673C13.0643 20.1673 14.9692 19.4853 16.5009 18.334" stroke="black" stroke-width="2" stroke-linecap="round" stroke-linejoin="round"/>
<path d="M14.6667 7.33398V11.0007C14.6667 11.9173 15.2167 13.7507 17.4167 13.7507C19.6167 13.7507 20.1667 11.9173 20.1667 11.0007" stroke="black" stroke-width="2" stroke-linecap="round"/>
</svg>
