<svg width="21" height="17" viewBox="0 0 21 17" fill="none" xmlns="http://www.w3.org/2000/svg">
<path d="M2.1 16.9952C1.5225 16.9952 1.02813 16.7901 0.616875 16.3797C0.205625 15.9693 0 15.4759 0 14.8997V2.32607C0 1.74978 0.205625 1.25644 0.616875 0.846051C1.02813 0.435663 1.5225 0.230469 2.1 0.230469H8.4L10.5 2.32607H18.9C19.4775 2.32607 19.9719 2.53126 20.3831 2.94165C20.7944 3.35204 21 3.84537 21 4.42166V14.8997C21 15.4759 20.7944 15.9693 20.3831 16.3797C19.9719 16.7901 19.4775 16.9952 18.9 16.9952H2.1ZM2.1 14.8997H18.9V4.42166H9.63375L7.53375 2.32607H2.1V14.8997Z" fill="black"/>
</svg>
