<svg width="25" height="25" viewBox="0 0 25 25" fill="none" xmlns="http://www.w3.org/2000/svg">
<path d="M14.8369 2.72852H6.83691C6.30648 2.72852 5.79777 2.93923 5.4227 3.3143C5.04763 3.68937 4.83691 4.19808 4.83691 4.72852V20.7285C4.83691 21.2589 5.04763 21.7677 5.4227 22.1427C5.79777 22.5178 6.30648 22.7285 6.83691 22.7285H18.8369C19.3673 22.7285 19.8761 22.5178 20.2511 22.1427C20.6262 21.7677 20.8369 21.2589 20.8369 20.7285V8.72852L14.8369 2.72852Z" stroke="black" stroke-width="2" stroke-linecap="round" stroke-linejoin="round"/>
<path d="M14.8369 2.72852V8.72852H20.8369" stroke="black" stroke-width="2" stroke-linecap="round" stroke-linejoin="round"/>
<path d="M16.8369 13.7285H8.83691" stroke="black" stroke-width="2" stroke-linecap="round" stroke-linejoin="round"/>
<path d="M16.8369 17.7285H8.83691" stroke="black" stroke-width="2" stroke-linecap="round" stroke-linejoin="round"/>
<path d="M10.8369 9.72852H9.83691H8.83691" stroke="black" stroke-width="2" stroke-linecap="round" stroke-linejoin="round"/>
<path d="M14.8369 2.72852H6.83691C6.30648 2.72852 5.79777 2.93923 5.4227 3.3143C5.04763 3.68937 4.83691 4.19808 4.83691 4.72852V20.7285C4.83691 21.2589 5.04763 21.7677 5.4227 22.1427C5.79777 22.5178 6.30648 22.7285 6.83691 22.7285H18.8369C19.3673 22.7285 19.8761 22.5178 20.2511 22.1427C20.6262 21.7677 20.8369 21.2589 20.8369 20.7285V8.72852L14.8369 2.72852Z" stroke="black" stroke-width="2" stroke-linecap="round" stroke-linejoin="round"/>
<path d="M14.8369 2.72852V8.72852H20.8369" stroke="black" stroke-width="2" stroke-linecap="round" stroke-linejoin="round"/>
<path d="M16.8369 13.7285H8.83691" stroke="black" stroke-width="2" stroke-linecap="round" stroke-linejoin="round"/>
<path d="M16.8369 17.7285H8.83691" stroke="black" stroke-width="2" stroke-linecap="round" stroke-linejoin="round"/>
<path d="M10.8369 9.72852H9.83691H8.83691" stroke="black" stroke-width="2" stroke-linecap="round" stroke-linejoin="round"/>
<path d="M14.8369 2.72852H6.83691C6.30648 2.72852 5.79777 2.93923 5.4227 3.3143C5.04763 3.68937 4.83691 4.19808 4.83691 4.72852V20.7285C4.83691 21.2589 5.04763 21.7677 5.4227 22.1427C5.79777 22.5178 6.30648 22.7285 6.83691 22.7285H18.8369C19.3673 22.7285 19.8761 22.5178 20.2511 22.1427C20.6262 21.7677 20.8369 21.2589 20.8369 20.7285V8.72852L14.8369 2.72852Z" stroke="black" stroke-width="2" stroke-linecap="round" stroke-linejoin="round"/>
<path d="M14.8369 2.72852V8.72852H20.8369" stroke="black" stroke-width="2" stroke-linecap="round" stroke-linejoin="round"/>
<path d="M16.8369 13.7285H8.83691" stroke="black" stroke-width="2" stroke-linecap="round" stroke-linejoin="round"/>
<path d="M16.8369 17.7285H8.83691" stroke="black" stroke-width="2" stroke-linecap="round" stroke-linejoin="round"/>
<path d="M10.8369 9.72852H9.83691H8.83691" stroke="black" stroke-width="2" stroke-linecap="round" stroke-linejoin="round"/>
<path d="M14.8369 2.72852H6.83691C6.30648 2.72852 5.79777 2.93923 5.4227 3.3143C5.04763 3.68937 4.83691 4.19808 4.83691 4.72852V20.7285C4.83691 21.2589 5.04763 21.7677 5.4227 22.1427C5.79777 22.5178 6.30648 22.7285 6.83691 22.7285H18.8369C19.3673 22.7285 19.8761 22.5178 20.2511 22.1427C20.6262 21.7677 20.8369 21.2589 20.8369 20.7285V8.72852L14.8369 2.72852Z" stroke="black" stroke-width="2" stroke-linecap="round" stroke-linejoin="round"/>
<path d="M14.8369 2.72852V8.72852H20.8369" stroke="black" stroke-width="2" stroke-linecap="round" stroke-linejoin="round"/>
<path d="M16.8369 13.7285H8.83691" stroke="black" stroke-width="2" stroke-linecap="round" stroke-linejoin="round"/>
<path d="M16.8369 17.7285H8.83691" stroke="black" stroke-width="2" stroke-linecap="round" stroke-linejoin="round"/>
<path d="M10.8369 9.72852H9.83691H8.83691" stroke="black" stroke-width="2" stroke-linecap="round" stroke-linejoin="round"/>
<path d="M14.8369 2.72852H6.83691C6.30648 2.72852 5.79777 2.93923 5.4227 3.3143C5.04763 3.68937 4.83691 4.19808 4.83691 4.72852V20.7285C4.83691 21.2589 5.04763 21.7677 5.4227 22.1427C5.79777 22.5178 6.30648 22.7285 6.83691 22.7285H18.8369C19.3673 22.7285 19.8761 22.5178 20.2511 22.1427C20.6262 21.7677 20.8369 21.2589 20.8369 20.7285V8.72852L14.8369 2.72852Z" stroke="black" stroke-width="2" stroke-linecap="round" stroke-linejoin="round"/>
<path d="M14.8369 2.72852V8.72852H20.8369" stroke="black" stroke-width="2" stroke-linecap="round" stroke-linejoin="round"/>
<path d="M16.8369 13.7285H8.83691" stroke="black" stroke-width="2" stroke-linecap="round" stroke-linejoin="round"/>
<path d="M16.8369 17.7285H8.83691" stroke="black" stroke-width="2" stroke-linecap="round" stroke-linejoin="round"/>
<path d="M10.8369 9.72852H9.83691H8.83691" stroke="black" stroke-width="2" stroke-linecap="round" stroke-linejoin="round"/>
<path d="M14.8369 2.72852H6.83691C6.30648 2.72852 5.79777 2.93923 5.4227 3.3143C5.04763 3.68937 4.83691 4.19808 4.83691 4.72852V20.7285C4.83691 21.2589 5.04763 21.7677 5.4227 22.1427C5.79777 22.5178 6.30648 22.7285 6.83691 22.7285H18.8369C19.3673 22.7285 19.8761 22.5178 20.2511 22.1427C20.6262 21.7677 20.8369 21.2589 20.8369 20.7285V8.72852L14.8369 2.72852Z" stroke="black" stroke-width="2" stroke-linecap="round" stroke-linejoin="round"/>
<path d="M14.8369 2.72852V8.72852H20.8369" stroke="black" stroke-width="2" stroke-linecap="round" stroke-linejoin="round"/>
<path d="M16.8369 13.7285H8.83691" stroke="black" stroke-width="2" stroke-linecap="round" stroke-linejoin="round"/>
<path d="M16.8369 17.7285H8.83691" stroke="black" stroke-width="2" stroke-linecap="round" stroke-linejoin="round"/>
<path d="M10.8369 9.72852H9.83691H8.83691" stroke="black" stroke-width="2" stroke-linecap="round" stroke-linejoin="round"/>
<path d="M14.8369 2.72852H6.83691C6.30648 2.72852 5.79777 2.93923 5.4227 3.3143C5.04763 3.68937 4.83691 4.19808 4.83691 4.72852V20.7285C4.83691 21.2589 5.04763 21.7677 5.4227 22.1427C5.79777 22.5178 6.30648 22.7285 6.83691 22.7285H18.8369C19.3673 22.7285 19.8761 22.5178 20.2511 22.1427C20.6262 21.7677 20.8369 21.2589 20.8369 20.7285V8.72852L14.8369 2.72852Z" stroke="black" stroke-width="2" stroke-linecap="round" stroke-linejoin="round"/>
<path d="M14.8369 2.72852V8.72852H20.8369" stroke="black" stroke-width="2" stroke-linecap="round" stroke-linejoin="round"/>
<path d="M16.8369 13.7285H8.83691" stroke="black" stroke-width="2" stroke-linecap="round" stroke-linejoin="round"/>
<path d="M16.8369 17.7285H8.83691" stroke="black" stroke-width="2" stroke-linecap="round" stroke-linejoin="round"/>
<path d="M10.8369 9.72852H9.83691H8.83691" stroke="black" stroke-width="2" stroke-linecap="round" stroke-linejoin="round"/>
</svg>
