<svg width="20" height="17" viewBox="0 0 20 17" fill="none" xmlns="http://www.w3.org/2000/svg">
<path d="M6.33333 2.20768H19.875V4.29102H6.33333V2.20768ZM1.125 12.6243H19.875V10.541H1.125V12.6243ZM19.875 16.791V14.7077H8.41667V16.791H19.875ZM5.29167 16.791V14.7077H1.125V16.791H5.29167ZM11.5417 8.45768V6.37435H1.125V8.45768H11.5417ZM19.875 8.45768V6.37435H14.6667V8.45768H19.875Z" fill="black"/>
<g clip-path="url(#clip0_0_1)">
<rect width="12.5" height="13.5417" transform="translate(0.0833359 0.125)" fill="#394554"/>
<path d="M6.59849 6.60947C5.92912 6.60947 5.35579 6.3359 4.87852 5.78876C4.40125 5.24163 4.16288 4.58469 4.16342 3.81795C4.16397 3.05122 4.40233 2.39366 4.87852 1.84528C5.35471 1.29691 5.92804 1.02427 6.59849 1.02737C7.26894 1.03047 7.84227 1.30342 8.31846 1.84621C8.79465 2.38901 9.03301 3.04657 9.03356 3.81888C9.0341 4.5912 8.79573 5.24814 8.31846 5.78969C7.84119 6.33125 7.26786 6.60389 6.59849 6.60947ZM0.916672 13.338V11.8063C0.916672 11.4224 1.01407 11.0632 1.20888 10.7288C1.40423 10.3938 1.66667 10.1339 1.99622 9.94905C2.76245 9.52784 3.52923 9.21209 4.29654 9.0018C5.06332 8.79088 5.83063 8.68543 6.59849 8.68543C7.36635 8.68543 8.13393 8.79088 8.90125 9.0018C9.66857 9.21271 10.4348 9.52846 11.2 9.94905C11.53 10.1339 11.7925 10.3938 11.9873 10.7288C12.1826 11.0632 12.2803 11.4224 12.2803 11.8063V13.338H0.916672ZM1.72836 12.4074H11.4686V11.8063C11.4686 11.6004 11.4104 11.4065 11.2941 11.2248C11.1783 11.0436 11.0179 10.8904 10.8128 10.7651C10.145 10.3941 9.45617 10.11 8.74622 9.91276C8.03626 9.7155 7.32035 9.61655 6.59849 9.61593C5.87663 9.61531 5.16072 9.71394 4.45076 9.91183C3.74081 10.1097 3.05195 10.3938 2.3842 10.7642C2.17858 10.8895 2.01813 11.0427 1.90287 11.2238C1.78653 11.4056 1.72836 11.5998 1.72836 11.8063V12.4074ZM6.59849 5.67989C7.04492 5.67989 7.42722 5.49752 7.74541 5.13276C8.06359 4.768 8.22241 4.32942 8.22187 3.81702C8.22133 3.30463 8.06251 2.86667 7.74541 2.50315C7.42831 2.13963 7.046 1.95725 6.59849 1.95601C6.15098 1.95477 5.76894 2.13715 5.45239 2.50315C5.13583 2.86915 4.97674 3.30711 4.97511 3.81702C4.97349 4.32694 5.13258 4.76521 5.45239 5.13183C5.77219 5.49845 6.15423 5.68052 6.59849 5.67803" fill="black"/>
</g>
<defs>
<clipPath id="clip0_0_1">
<rect width="12.5" height="13.5417" fill="white" transform="translate(0.0833359 0.125)"/>
</clipPath>
</defs>
</svg>
