<svg width="20" height="20" viewBox="0 0 20 20" fill="none" xmlns="http://www.w3.org/2000/svg">
<path d="M6.75 5C6.55109 5 6.36032 5.07902 6.21967 5.21967C6.07902 5.36032 6 5.55109 6 5.75C6 5.94891 6.07902 6.13968 6.21967 6.28033C6.36032 6.42098 6.55109 6.5 6.75 6.5H14.25C14.4489 6.5 14.6397 6.42098 14.7803 6.28033C14.921 6.13968 15 5.94891 15 5.75C15 5.55109 14.921 5.36032 14.7803 5.21967C14.6397 5.07902 14.4489 5 14.25 5H6.75ZM5 9.75C5 9.55109 5.07902 9.36032 5.21967 9.21967C5.36032 9.07902 5.55109 9 5.75 9H12.25C12.4489 9 12.6397 9.07902 12.7803 9.21967C12.921 9.36032 13 9.55109 13 9.75C13 9.94891 12.921 10.1397 12.7803 10.2803C12.6397 10.421 12.4489 10.5 12.25 10.5H5.75C5.55109 10.5 5.36032 10.421 5.21967 10.2803C5.07902 10.1397 5 9.94891 5 9.75ZM7.75 13C7.55109 13 7.36032 13.079 7.21967 13.2197C7.07902 13.3603 7 13.5511 7 13.75C7 13.9489 7.07902 14.1397 7.21967 14.2803C7.36032 14.421 7.55109 14.5 7.75 14.5H14.25C14.4489 14.5 14.6397 14.421 14.7803 14.2803C14.921 14.1397 15 13.9489 15 13.75C15 13.5511 14.921 13.3603 14.7803 13.2197C14.6397 13.079 14.4489 13 14.25 13H7.75Z" fill="black"/>
<path d="M0 1.75C0 0.784 0.784 0 1.75 0H18.25C19.216 0 20 0.784 20 1.75V18.25C20 18.7141 19.8156 19.1592 19.4874 19.4874C19.1592 19.8156 18.7141 20 18.25 20H1.75C1.28587 20 0.840752 19.8156 0.512563 19.4874C0.184375 19.1592 0 18.7141 0 18.25V1.75ZM1.75 1.5C1.6837 1.5 1.62011 1.52634 1.57322 1.57322C1.52634 1.62011 1.5 1.6837 1.5 1.75V18.25C1.5 18.388 1.612 18.5 1.75 18.5H18.25C18.3163 18.5 18.3799 18.4737 18.4268 18.4268C18.4737 18.3799 18.5 18.3163 18.5 18.25V1.75C18.5 1.6837 18.4737 1.62011 18.4268 1.57322C18.3799 1.52634 18.3163 1.5 18.25 1.5H1.75Z" fill="black"/>
</svg>
