<svg width="24" height="24" viewBox="0 0 24 24" fill="none" xmlns="http://www.w3.org/2000/svg">
<path d="M13.6684 0.631836V3.00099H23.2541C23.6661 3.00099 24 3.33493 24 3.74691V20.0536C24 20.4655 23.6661 20.7994 23.2541 20.7994H13.6684V23.3675L0 20.9485V3.04655L13.6684 0.631836ZM9.1328 10.5794C9.17878 9.85107 9.00586 9.11274 8.51592 8.64052C7.93289 8.07844 7.5442 7.98001 5.87738 8.0663L4.52334 8.13643V15.7843H5.90006V13.1294C8.43998 13.3462 9.02873 11.881 9.1328 10.5794ZM7.55044 10.5794C7.47848 11.8222 6.90291 11.7699 5.89997 11.7527V9.44185C7.02717 9.4021 7.51373 9.55651 7.55044 10.5794ZM22.1449 10.5727L19.5615 13.2672L16.861 10.5727H18.8801V7.03271H13.6684V13.9534L15.7437 11.9112L18.831 15.0007C18.831 15.0007 15.8094 17.9477 15.7377 17.9477C15.6661 17.9477 13.6684 16.0426 13.6684 16.0426V20.0128H23.2068V3.78765H13.6684V5.75429H20.1585V10.5727L22.1449 10.5727Z" fill="black"/>
</svg>
