<svg width="20" height="19" viewBox="0 0 20 19" fill="none" xmlns="http://www.w3.org/2000/svg">
<path d="M2 16V2V7.075V7V16ZM2 18C1.45 18 0.979333 17.8043 0.588 17.413C0.196667 17.0217 0.000666667 16.5507 0 16V2C0 1.45 0.196 0.979333 0.588 0.588C0.98 0.196667 1.45067 0.000666667 2 0H14L18 4V7.675C17.6833 7.525 17.3583 7.4 17.025 7.3C16.6917 7.2 16.35 7.125 16 7.075V4.85L13.15 2H2V16H8.3C8.41667 16.3667 8.55433 16.7167 8.713 17.05C8.87167 17.3833 9.059 17.7 9.275 18H2ZM8.05 14.85C8.03333 14.7 8.02067 14.5543 8.012 14.413C8.00333 14.2717 7.99933 14.1257 8 13.975C8 13.075 8.16667 12.2083 8.5 11.375C8.83333 10.5417 9.31667 9.8 9.95 9.15C9.8 9.1 9.646 9.06267 9.488 9.038C9.33 9.01333 9.16733 9.00067 9 9C8.16667 9 7.45833 9.29167 6.875 9.875C6.29167 10.4583 6 11.1667 6 12C6 12.65 6.18767 13.2377 6.563 13.763C6.93833 14.2883 7.434 14.6507 8.05 14.85ZM15 19C13.6167 19 12.4377 18.5123 11.463 17.537C10.4883 16.5617 10.0007 15.3827 10 14C9.99933 12.6173 10.487 11.4383 11.463 10.463C12.439 9.48767 13.618 9 15 9C16.382 9 17.5613 9.48767 18.538 10.463C19.5147 11.4383 20.002 12.6173 20 14C19.998 15.3827 19.5103 16.562 18.537 17.538C17.5637 18.514 16.3847 19.0013 15 19ZM15.5 13.8V11H14.5V14.2L16.675 16.375L17.375 15.675L15.5 13.8ZM3 7H12V3H3V7Z" fill="black"/>
</svg>
